<?xml version="1.0" encoding="UTF-8"?>
<svg width="19px" height="19px" viewBox="0 0 19 19" version="1.1" xmlns="http://www.w3.org/2000/svg" xmlns:xlink="http://www.w3.org/1999/xlink">
    <!-- Generator: Sketch 52.4 (67378) - http://www.bohemiancoding.com/sketch -->
    <title>Group 8@2x</title>
    <desc>Created with Sketch.</desc>
    <defs>
        <polygon id="path-1" points="0.00123076923 0.000196923077 12.8009846 0.000196923077 12.8009846 18.7076923 0.00123076923 18.7076923"></polygon>
    </defs>
    <g id="simple-sample" stroke="none" stroke-width="1" fill="none" fill-rule="evenodd">
        <g id="authenticated" transform="translate(-277.000000, -30.000000)">
            <g id="Group-8" transform="translate(286.000000, 39.600000) scale(-1, 1) translate(-286.000000, -39.600000) translate(276.000000, 30.000000)">
                <path d="M3.44738462,12.8001969 C3.31938462,12.8001969 3.19630769,12.7504738 3.09784615,12.6569354 L0.144,9.70308923 C-0.048,9.51158154 -0.048,9.20093538 0.144,9.00942769 L3.09784615,6.05558154 C3.28984615,5.86358154 3.6,5.86358154 3.792,6.05558154 C3.984,6.24708923 3.984,6.55773538 3.792,6.74924308 L1.18769231,9.35404308 L3.792,11.9583508 C3.984,12.1503508 3.984,12.4605046 3.792,12.6525046 C3.69846154,12.7504738 3.57538462,12.8001969 3.44738462,12.8001969" id="Fill-1" fill="#FFFFFF"></path>
                <path d="M13.2935385,9.84610462 L0.493538462,9.84610462 C0.222769231,9.84610462 0.00123076923,9.62456615 0.00123076923,9.35379692 C0.00123076923,9.08302769 0.222769231,8.86148923 0.493538462,8.86148923 L13.2935385,8.86148923 C13.5643077,8.86148923 13.7858462,9.08302769 13.7858462,9.35379692 C13.7858462,9.62456615 13.5643077,9.84610462 13.2935385,9.84610462" id="Fill-3" fill="#FFFFFF"></path>
                <g id="Group-7" transform="translate(5.907692, 0.000000)">
                    <mask id="mask-2" fill="white">
                        <use xlink:href="#path-1"></use>
                    </mask>
                    <g id="Clip-6"></g>
                    <path d="M12.3089231,18.7078892 L0.493538462,18.7078892 C0.222769231,18.7078892 0.00123076923,18.4863508 0.00123076923,18.2155815 L0.00123076923,12.8001969 C0.00123076923,12.5294277 0.222769231,12.3078892 0.493538462,12.3078892 C0.764307692,12.3078892 0.985846154,12.5294277 0.985846154,12.8001969 L0.985846154,17.7232738 L11.8166154,17.7232738 L11.8166154,0.984812308 L0.985846154,0.984812308 L0.985846154,5.90788923 C0.985846154,6.17865846 0.764307692,6.40019692 0.493538462,6.40019692 C0.222769231,6.40019692 0.00123076923,6.17865846 0.00123076923,5.90788923 L0.00123076923,0.492504615 C0.00123076923,0.221735385 0.222769231,0.000196923077 0.493538462,0.000196923077 L12.3089231,0.000196923077 C12.5796923,0.000196923077 12.8012308,0.221735385 12.8012308,0.492504615 L12.8012308,18.2155815 C12.8012308,18.4863508 12.5796923,18.7078892 12.3089231,18.7078892" id="Fill-5" fill="#FFFFFF" mask="url(#mask-2)"></path>
                </g>
            </g>
        </g>
    </g>
</svg>